<svg xmlns="http://www.w3.org/2000/svg" xmlns:xlink="http://www.w3.org/1999/xlink" width="1200" height="1200" viewBox="0 0 1200 1200"><g><g transform="translate(600 600) scale(0.69 0.69) rotate(0) translate(-600 -600)" style="fill:#FFFFFF"><svg fill="#FFFFFF" xmlns="http://www.w3.org/2000/svg" xmlns:xlink="http://www.w3.org/1999/xlink" version="1.1" x="0px" y="0px" viewBox="0 0 512 512" style="enable-background:new 0 0 512 512;" xml:space="preserve"><g><g><g><g><path d="M327.707,400.105l0.072,1.78c0,8.563-2.529,15.634-6.766,21.289l-0.225,0.371c-4.842,6.25-11.762,10.793-19.646,13.62      c-7.748,2.834-16.375,4.172-25.01,4.172c-13.992,0-27.986-3.503-37.511-9.528c-9.528,6.025-23.52,9.528-37.583,9.528      c-8.562,0-17.196-1.338-24.937-4.172c-7.886-2.827-14.809-7.37-19.646-13.62c-4.39-5.801-7-12.952-7-21.66l0.077-1.859      c0.745-13.243,8.856-22.924,19.722-29.247c10.346-5.953,23.295-8.853,34.237-8.853h0.076      c16.223-40.935,1.41-89.689-10.721-129.504c-6.548-21.514-12.276-40.563-12.276-55.005c0-18.527,8.41-29.771,33.492-29.771      c5.132,0,10.117,0.821,14.66,2.238c3.572,1.119,6.919,2.603,9.899,4.463c2.977-1.86,6.323-3.344,9.899-4.463      c4.539-1.417,9.45-2.238,14.661-2.238c25.082,0,33.49,11.243,33.49,29.771c0,14.441-5.734,33.491-12.275,55.005      c-12.139,39.814-26.947,88.569-10.721,129.504c10.27,0,23.15,2.899,33.637,8.779      C318.404,376.957,326.965,386.631,327.707,400.105z M318.928,401.886v-1.336c-0.523-9.899-7.217-17.27-15.926-22.183      c-9.158-5.204-20.545-7.661-29.551-7.661h-2.457c-2.006,0.146-3.721-1.047-4.391-2.906      c-19.049-44.278-3.35-95.934,9.377-137.907c6.33-20.844,11.912-39.145,11.912-52.475c0-13.025-6.178-20.91-24.711-20.91      c-4.318,0-8.411,0.596-12.059,1.715c-3.794,1.185-7.145,2.827-9.822,4.906c-1.64,1.264-3.798,1.191-5.36,0      c-2.679-2.079-6.025-3.722-9.823-4.906c-3.645-1.119-7.741-1.715-12.055-1.715c-18.534,0-24.711,7.885-24.711,20.91      c0,13.33,5.582,31.631,11.905,52.475c12.806,42.055,28.505,93.847,9.23,138.212c-0.742,1.707-2.457,2.747-4.241,2.602h-2.754      c-9.601,0-20.841,2.529-29.846,7.74c-8.482,4.834-14.809,12.204-15.329,22.03l-0.073,1.409c0,6.702,1.934,12.065,5.132,16.304      c3.797,4.912,9.303,8.481,15.706,10.793c6.698,2.383,14.362,3.495,21.957,3.495c13.243,0,26.267-3.277,34.233-9.005      c0.821,0.741,1.86,1.192,3.053,1.192h0.298h0.298c1.116,0,2.231-0.451,3.053-1.192c7.959,5.728,20.983,9.005,34.161,9.005      c7.668,0,15.328-1.112,21.957-3.495c6.469-2.312,11.977-5.96,15.699-10.793l0.225-0.226      C317.139,413.799,318.928,408.442,318.928,401.886z"></path><path d="M446.787,324.932c3.424,16.005,0.523,27.981-13.395,30.89c-22.852,4.841-36.174-6.556-43.615-16.078      c0.748,27.46,1.715,75.691-7.217,103.527c-5.51,17.117-14.74,27.169-29.771,22.328c-24.412-7.813-23.221-23.069-20.096-34.233      c-2.9,3.723-6.775,8.635-11.607,14.29c-23.592,27.313-59.838,69.359-82.464,66.162c-24.115,3.495-63.93-43.987-86.632-71.076      c-2.082-2.456-3.721-4.768-5.063-6.847c1.861,11.164-0.52,24.712-22.473,31.704c-14.885,4.841-23.818-4.39-28.956-20.467      c-8.482-26.348-6.396-72.862-5.132-100.257l0.371-8.555c-8.485,9.078-23.592,24.414-46.886,19.501      c-14.515-3.053-17.341-15.626-13.846-32.3c5.582-26.201,27.837-64.003,41.679-85.814c-5.284,3.495-10.048,6.999-10.942,7.813      c-2.304,2.087-8.929,1.86-14.809-1.787c-3.572-2.231-7.145-5.582-9.452-10.343c-2.308-4.688-3.423-10.567-1.861-17.713      c3.423-16.375,21.063-40.411,70.854-73.161c-2.38-0.072-4.539-0.45-6.552-1.264c-7.443-3.125-11.011-10.866-4.092-27.459      c8.707-20.99,44.51-33.42,78.299-40.644c32.968-7.064,64.229-9.304,65.195-9.376h0.596c0.967,0.072,32.147,2.312,65.124,9.376      c33.861,7.224,69.584,19.653,78.371,40.644c6.768,16.295,2.9,24.035-4.84,27.233c-2.828,1.191-6.252,1.562-9.754,1.489      c51.355,34.313,68.328,59.323,71.227,75.916c1.121,6.621,0.152,12.058-1.861,16.375c-2.076,4.39-5.211,7.515-8.256,9.521      c-4.768,3.125-10.125,3.278-12.428,1.191c-0.82-0.741-7.297-5.356-13.926-9.674C417.17,258.697,441.133,298.214,446.787,324.932      z M431.605,347.26c7.668-1.636,8.932-9.675,6.627-20.54c-6.33-29.697-37.518-77.776-49.566-96.383l-1.418-2.159      c-0.822-1.337-1.193-2.529-1.193-3.648c0.082-4.833,2.98-5.873,7.74-4.012c1.338,0.516,3.127,1.482,5.059,2.602      c8.418,4.842,22.256,14.74,23.521,15.853c0.297,0.298,0.377-1.112,1.787-2.014c1.861-1.191,3.795-3.125,5.059-5.873      c1.346-2.834,1.941-6.556,1.119-11.163c-2.826-16.303-22.102-42.504-84.025-80.829c-3.723-2.304-4.463-4.615-2.684-7.218      c1.789-2.834,4.398-2.086,8.338-1.046c5.436,1.489,16.6,4.463,22.254,2.086c3.205-1.265,4.318-5.582,0.074-15.779      c-7.291-17.56-40.484-28.724-72.043-35.425c-30.883-6.629-60.208-8.932-63.632-9.158c-3.423,0.227-32.75,2.529-63.632,9.158      c-31.558,6.701-64.751,17.865-72.049,35.425c-4.39,10.495-3.496,14.813-0.593,16.005c6.102,2.602,19.275-2.385,23.891-4.02      c3.125-1.192,5.063-1.94,6.923,1.039c1.563,2.238,1.188,4.695-1.715,6.476c-63.857,38.107-84.768,64.156-88.268,80.829      c-1.043,4.986-0.371,8.998,1.116,12.051c1.49,3.053,3.874,5.291,6.25,6.774l4.317,2.682      c1.639-1.417,14.289-10.495,21.808-14.958c1.86-1.039,3.427-1.94,4.615-2.385c4.688-2.006,7.52-0.966,7.592,3.875      c0,1.111-0.298,2.23-1.119,3.343v0.08c-9.375,14.362-42.497,64.896-49.118,96.455c-2.457,11.535-1.192,20.09,6.996,21.878      c19.203,4.019,32.376-10.117,39.448-17.786c3.496-3.794,5.953-6.402,9.078-6.33c3.871,0.072,5.582,2.762,5.433,9.158      l-0.52,13.023c-1.192,26.719-3.202,72.268,4.761,97.125c3.576,11.091,9.158,17.64,17.938,14.813      c19.649-6.251,17.64-19.719,14.885-28.208l-1.49-4.244c-1.784-4.762-0.967-7.516,2.158-8.708      c4.096-1.482,11.164,6.92,21.361,18.985c21.731,25.969,60.063,71.663,79.113,68.021h1.64      c17.562,3.351,52.472-37.06,75.017-63.262c12.211-14.217,21.289-24.711,26.129-23.222c3.424,1.047,4.463,4.317,2.676,10.27      l-0.67,2.087c-2.602,8.038-7.072,21.876,12.879,28.28c8.854,2.9,14.807-4.47,18.752-16.674      c8.787-27.387,7.443-76.875,6.773-103.302l-0.225-7.297c-0.072-5.502,1.266-7.887,4.768-7.887      c2.9-0.071,4.318,2.014,6.324,5.212C396.479,334.613,407.643,352.245,431.605,347.26z M93.713,331.931      c0.673-0.08,1.043-0.08,0.222-0.08L93.713,331.931z"></path><path d="M500.746,289.507c2.609,2.682,4.246,6.403,4.246,10.495s-1.637,7.894-4.391,10.567l-0.152,0.146      c-2.756,2.682-6.396,4.317-10.496,4.317c-4.092,0-7.885-1.709-10.568-4.391l-0.145-0.218c-2.682-2.683-4.316-6.331-4.316-10.423      c0-4.172,1.707-7.894,4.389-10.641l0.146-0.152c2.754-2.683,6.475-4.238,10.494-4.238c4.172,0,7.893,1.636,10.648,4.391      L500.746,289.507z M496.205,300.002c0-1.715-0.67-3.271-1.781-4.391c-1.193-1.191-2.754-1.859-4.471-1.859      c-1.707,0-3.271,0.668-4.389,1.788c-1.121,1.191-1.861,2.747-1.861,4.462s0.74,3.271,1.861,4.391      c1.117,1.191,2.682,1.859,4.389,1.859c1.717,0,3.277-0.668,4.471-1.859C495.535,303.272,496.205,301.717,496.205,300.002z"></path><path d="M384.195,488.667c2.457,0,4.396,1.935,4.396,4.391c0,2.385-1.939,4.391-4.396,4.391h-22.844      c-2.457,0-4.391-2.006-4.391-4.391c0-2.456,1.934-4.391,4.391-4.391H384.195z"></path><path d="M368.939,500.428c2.383,0,4.391,1.933,4.391,4.391c0,2.383-2.008,4.389-4.391,4.389h-48.9      c-2.455,0-4.391-2.006-4.391-4.389c0-2.458,1.936-4.391,4.391-4.391H368.939z"></path><path d="M358.227,39.142c2.078,1.185,2.748,3.946,1.555,5.952c-0.371,0.742-0.959,1.266-1.555,1.636l-16.078,9.304      c-2.086,1.191-4.768,0.443-5.959-1.636c-1.186-2.086-0.516-4.841,1.568-5.952l9.449-5.51l-9.449-5.43      c-2.084-1.191-2.754-3.873-1.568-6.032c1.191-2.086,3.873-2.755,5.959-1.563L358.227,39.142z"></path><path d="M334.48,211.359c4.689,3.198,7.596,7.661,7.596,12.727c0,5.139-2.906,9.675-7.596,12.8      c-4.164,2.834-9.746,4.542-15.924,4.542s-11.832-1.708-16.004-4.542c-4.688-3.125-7.588-7.661-7.588-12.8      c0-5.065,2.9-9.601,7.588-12.727c4.172-2.826,9.826-4.535,16.004-4.535S330.316,208.533,334.48,211.359z M333.289,224.086      c0-2.013-1.418-3.946-3.721-5.502c-2.756-1.86-6.695-2.979-11.012-2.979c-4.471,0-8.338,1.119-11.09,2.979      c-2.313,1.556-3.723,3.489-3.723,5.502c0,2.014,1.41,4.02,3.723,5.51c2.752,1.86,6.619,3.053,11.09,3.053      c4.316,0,8.256-1.192,11.012-3.053C331.871,228.105,333.289,226.1,333.289,224.086z"></path><path d="M252.762,376.957c6.625,0.45,9.005,3.271,8.783,7.965c-0.152,3.94-3.422,8.635-7.297,14.217      c-4.614,6.47-10.27,14.508-10.938,21.58c-0.073,1.112-0.597,2.013-1.338,2.754c-0.226-0.146-0.45-0.298-0.672-0.45      c-1.563-1.191-3.722-1.265-5.36,0c-0.222,0.152-0.443,0.305-0.669,0.45c-0.817-0.813-1.337-1.934-1.337-3.125      c-0.895-6.919-6.403-14.813-10.943-21.209l-0.148-0.306c-3.794-5.429-6.996-9.971-7.145-13.911      c-0.297-4.767,2.232-7.667,9.155-8.038C233.261,376.739,244.575,376.36,252.762,376.957z M252.463,385.736      c-9.081,0.153-18.309,0-27.39,0v-0.145c-0.443-0.371-0.668-1.788-0.668-1.12c0.073,1.418,2.606,5.059,5.582,9.303l0.149,0.299      c2.827,4.019,6.028,8.482,8.485,13.323c2.457-4.841,5.582-9.305,8.409-13.323C249.488,390.577,251.57,387.524,252.463,385.736z"></path><path d="M241.3,423.022c0.222,0.152,0.446,0.305,0.672,0.45c-0.821,0.741-1.937,1.192-3.053,1.192h-0.298h-0.298      c-1.192,0-2.231-0.451-3.053-1.192c0.226-0.146,0.447-0.298,0.669-0.45C237.579,421.758,239.737,421.831,241.3,423.022z"></path><path d="M174.691,211.359c4.688,3.126,7.588,7.661,7.588,12.727c0,5.139-2.9,9.675-7.588,12.8      c-4.172,2.834-9.827,4.542-15.932,4.542c-6.175,0-11.905-1.708-15.998-4.542c-4.691-3.125-7.595-7.661-7.595-12.8      c0-5.065,2.903-9.528,7.595-12.727c4.092-2.826,9.823-4.535,15.998-4.535C164.865,206.824,170.519,208.533,174.691,211.359z       M173.423,224.086c0-2.013-1.341-3.946-3.645-5.502c-2.754-1.86-6.701-2.979-11.018-2.979c-4.463,0-8.333,1.119-11.088,2.979      c-2.307,1.556-3.721,3.489-3.721,5.502c0,2.014,1.414,4.02,3.721,5.51c2.754,1.86,6.625,3.053,11.088,3.053      c4.317,0,8.264-1.192,11.018-3.053C172.01,228.105,173.423,226.1,173.423,224.086z"></path><path d="M152.956,481.008c2.083,2.006,3.427,4.985,3.427,8.183c0,3.199-1.345,6.179-3.427,8.258      c-2.082,2.093-5.062,3.43-8.26,3.43s-6.105-1.337-8.188-3.43c-2.159-2.079-3.423-5.059-3.423-8.258      c0-3.197,1.265-6.177,3.423-8.183c2.082-2.166,4.989-3.504,8.188-3.504S150.874,478.842,152.956,481.008z M147.596,489.19      c0-0.741-0.371-1.489-0.89-2.006c-0.52-0.523-1.192-0.82-2.01-0.82c-0.745,0-1.49,0.297-2.01,0.82      c-0.52,0.517-0.818,1.265-0.818,2.006c0,0.814,0.298,1.483,0.818,2.007c0.52,0.522,1.265,0.901,2.01,0.901      c0.817,0,1.49-0.379,2.01-0.901C147.225,490.674,147.596,490.005,147.596,489.19z"></path><path d="M148.119,14.205c0.596,2.311-0.745,4.768-3.125,5.363l-7.814,2.079c-2.384,0.596-4.768-0.741-5.36-3.126      c-0.672-2.311,0.745-4.76,3.125-5.355l7.817-2.087C145.066,10.483,147.523,11.82,148.119,14.205z"></path><path d="M137.18,33.109c0.597,2.384-0.748,4.761-3.125,5.356c-2.311,0.676-4.768-0.741-5.364-3.046l-2.006-7.668      c-0.669-2.311,0.741-4.768,3.052-5.355c2.381-0.677,4.761,0.74,5.43,3.117L137.18,33.109z"></path><path d="M131.148,10.629c0.596,2.311-0.741,4.768-3.125,5.363c-2.304,0.597-4.76-0.741-5.356-3.125l-1.934-7.369      c-0.672-2.313,0.741-4.762,3.049-5.357c2.38-0.596,4.764,0.749,5.36,3.125L131.148,10.629z"></path><path d="M126.238,20.084c0.593,2.313-0.817,4.688-3.129,5.357l-7.958,2.086c-2.384,0.676-4.768-0.742-5.36-3.045      c-0.673-2.385,0.745-4.769,3.125-5.438l7.962-2.086C123.186,16.363,125.643,17.708,126.238,20.084z"></path><polygon points="32.236,265.616 34.62,273.583 26.211,276.031 23.827,268.146     "></polygon><polygon points="26.211,276.031 28.591,283.925 20.182,286.454 17.801,278.561     "></polygon><polygon points="21.447,260.26 23.827,268.146 15.49,270.683 13.114,262.789     "></polygon><polygon points="15.417,270.683 17.801,278.561 9.393,281.024 7.008,273.131     "></polygon></g></g></g></g></svg></g></g></svg>